inDegrees=no
num_controls=7
num_derivatives=13
num_iterations=132
num_multipliers=7
num_parameters=0
num_slacks=7
num_states=26
objective=3.955937
objective_accelerations=0.563982
objective_balance=0.071227
objective_effort=0.462723
objective_height=2.816216
objective_ligament=0.041788
solver_duration=1425.498789
status=Solve_Succeeded
success=true
DataType=double
version=3
OpenSimVersion=4.4-2022-07-23-0e9fedc
endheader
time	/jointset/ground_pelvis/pelvis_tilt/value	/jointset/ground_pelvis/pelvis_tx/value	/jointset/ground_pelvis/pelvis_ty/value	/jointset/hip_l/hip_flexion_l/value	/jointset/hip_l/hip_adduction_l/value	/jointset/hip_l/hip_rotation_l/value	/jointset/back/lumbar_extension/value	/jointset/patellofemoral_l/patellar_flexion_l/value	/jointset/knee_l/knee_flexion_l/value	/jointset/knee_l/knee_adduction_l/value	/jointset/knee_l/knee_rotation_l/value	/jointset/ankle_l/ankle_angle_l/value	/jointset/subtalar_l/subtalar_angle_l/value	/jointset/ground_pelvis/pelvis_tilt/speed	/jointset/ground_pelvis/pelvis_tx/speed	/jointset/ground_pelvis/pelvis_ty/speed	/jointset/hip_l/hip_flexion_l/speed	/jointset/hip_l/hip_adduction_l/speed	/jointset/hip_l/hip_rotation_l/speed	/jointset/back/lumbar_extension/speed	/jointset/patellofemoral_l/patellar_flexion_l/speed	/jointset/knee_l/knee_flexion_l/speed	/jointset/knee_l/knee_adduction_l/speed	/jointset/knee_l/knee_rotation_l/speed	/jointset/ankle_l/ankle_angle_l/speed	/jointset/subtalar_l/subtalar_angle_l/speed	/forceset/tau_hip_flexion_l	/forceset/tau_hip_adduction_l	/forceset/tau_hip_rotation_l	/forceset/tau_knee_flexion_l	/forceset/tau_ankle_angle_l	/forceset/tau_subtalar_angle_l	/forceset/tau_lumbar_extension	lambda_cid13_p0	lambda_cid13_p1	lambda_cid13_p2	lambda_cid13_p3	lambda_cid13_p4	lambda_cid13_p5	lambda_cid14_p0	/jointset/ground_pelvis/pelvis_tilt/accel	/jointset/ground_pelvis/pelvis_tx/accel	/jointset/ground_pelvis/pelvis_ty/accel	/jointset/hip_l/hip_flexion_l/accel	/jointset/hip_l/hip_adduction_l/accel	/jointset/hip_l/hip_rotation_l/accel	/jointset/back/lumbar_extension/accel	/jointset/patellofemoral_l/patellar_flexion_l/accel	/jointset/knee_l/knee_flexion_l/accel	/jointset/knee_l/knee_adduction_l/accel	/jointset/knee_l/knee_rotation_l/accel	/jointset/ankle_l/ankle_angle_l/accel	/jointset/subtalar_l/subtalar_angle_l/accel	gamma_cid13_p0	gamma_cid13_p1	gamma_cid13_p2	gamma_cid13_p3	gamma_cid13_p4	gamma_cid13_p5	gamma_cid14_p0
0.5	-0.3428242182316982	-0.02877588571350417	0.7142227191141864	1.343078380238274	-0.2508642100155117	-0.0333640152087181	-0.3412438658425308	1.063493952119873	1.063493952119811	0.009968299944885555	0.1745326385542369	0.2722860270033994	0.072341631491056	-0.3896020112235185	-0.113908593581411	-0.7535755806785215	2.558959676308265	0.05794651805329536	0.4171826972049187	-0.6081464359822895	2.779537559436354	2.77953755943649	0.4529065031222005	1.234179378658574e-05	0.7574626352103692	0.2799253057152103	-0.200121696210375	0.00203412230374612	-0.009238062739156918	-0.2957301313415795	0.07956454317264368	0.02949953103460659	0.1981183233597998	-10.98057738566947	-10.24051050931122	0.4894369032207642	-5.23887580672621	-594.9892595727532	-63.70582670031961	-5.500368446436712	1.06431239187566	0.8520834156526557	-0.6924523184888984	-1.746171684086294	-0.1072704119857116	-1.023626319303772	2.023315853249762	-1.855642156931491	-1.855642156931486	-0.2930404930305434	-0.1006259835661864	-1.38710811909035	-0.1526375997532204	5.881396800660188e-09	-5.596805890154946e-06	-2.072398928664428e-06	-7.653675992957809e-07	-3.570567282756159e-07	-3.62273789532125e-06	-2.491332288124029e-07
0.51	-0.3466661411555442	-0.02987230784751479	0.7066542238272364	1.368576953319909	-0.2502918129552312	-0.02924784965129923	-0.3472240198316626	1.091192040232229	1.091192040232152	0.01448356504342467	0.1745326005549103	0.2797892476883946	0.07513031803671347	-0.3787144069500946	-0.1053686990775134	-0.7599408310433398	2.540434893105826	0.05649020526654909	0.4061062708057999	-0.5878376825952556	2.759703365252818	2.759703365252841	0.4500621787586956	-1.548720339423898e-05	0.7430454286640605	0.2776989124672097	-0.2069475405641588	0.002293384024334972	-0.00963694771228763	-0.3010125158986538	0.07738796995512204	0.03003391475062971	0.204011961234122	-12.06882129391029	-10.09408404335062	0.2513925188181455	-4.796897843565091	-602.065640793577	-64.14449465124267	-4.154402941113087	1.111200989687813	0.8558564695576566	-0.5812316603525951	-1.95364629045245	-0.1705941040964336	-1.141602348427974	2.041656968703918	-2.103770100021772	-2.103770100038645	-0.2935555077311422	0.04735458047842412	-1.489647340564162	-0.2734605300228759	6.620553226773943e-08	-5.3561413853653e-06	-2.450339823258131e-06	-7.807793646989816e-07	-3.1762002862004e-07	-3.712717901044659e-06	-1.811830605124826e-07
0.52	-0.3503971447277321	-0.03088314823612649	0.6990275419836631	1.393880675639093	-0.2497351355012339	-0.02524083866751471	-0.3529996859094697	1.118680493992558	1.118680493992466	0.0189677014783883	0.1745325274532998	0.2871441722242939	0.07789357658135103	-0.3674181408921933	-0.09679224450162736	-0.7652128920031305	2.519989523818198	0.05480259679671017	0.3953517824781984	-0.567248853717276	2.737610689030998	2.737610689030908	0.4466807704063625	5.321330323276728e-06	0.7278034053912306	0.2748397055112333	-0.2137733849179556	0.002552645744918639	-0.01003583268538761	-0.3062949004557273	0.07521139673760055	0.0305682984666462	0.2099055991084315	-13.14655817511842	-9.967907675638648	0.03760159873379685	-4.443037479295752	-609.008444557233	-64.63604332198003	-2.99952961113188	1.146044748771093	0.8593954300503674	-0.473814437483378	-2.130288901123966	-0.1535295486042459	-0.9592387050003194	2.079330951438916	-2.307338564588432	-2.307338564588421	-0.4004572907961981	-0.09089847738649909	-1.552071464394565	-0.2792003413483605	1.186179549750494e-07	-5.066709256132025e-06	-2.74929234362586e-06	-7.811441272038225e-07	-2.813425034483976e-07	-3.775869578786626e-06	-1.167345759792391e-07
0.53	-0.35401337111837	-0.031808156509291	0.6913536181665241	1.41897079402442	-0.2491959898662908	-0.02134021860092679	-0.3585681632209134	1.145937051796311	1.145937051796271	0.02341671025935396	0.174532461608961	0.2943428499357625	0.0806256993017531	-0.3557712527699785	-0.08821218706295683	-0.769387103213646	2.497737858665789	0.05300645394756694	0.3847882667905715	-0.5464190584864145	2.713351739637883	2.713351739637767	0.4431003520044963	-1.304465635860507e-05	0.7118190115759265	0.2715002548475504	-0.220374909411853	0.00306956924628622	-0.01059359096416072	-0.3118643537617481	0.0730586356962465	0.03071890149568914	0.2155666943324674	-14.25325012114327	-9.64461222038913	-0.2365936589899075	-3.934522705439011	-616.0550031021671	-64.74757409168646	-2.029026519035963	1.182398596136263	0.8567380939530911	-0.3615616886951104	-2.317042277208678	-0.1950220163961522	-1.102701274196017	2.088936321617111	-2.537526362355282	-2.537526362359119	-0.3405833259919646	0.04419999980053874	-1.638778796379522	-0.3728832566028027	1.534475515851926e-07	-4.743435653266287e-06	-2.876136790530986e-06	-7.639170644249375e-07	-2.558381650995223e-07	-3.778068388972995e-06	-6.682234467094636e-08
0.54	-0.3575114510773465	-0.03264747876943322	0.683643484792108	1.44382950836724	-0.2486752787325047	-0.01754479234592552	-0.3639275160775072	1.172940549458996	1.172940549459009	0.02782916501407856	0.174532513236527	0.3013782526178219	0.08332211434997344	-0.3437888545601853	-0.07965504189716592	-0.7724548034585413	2.473708715317005	0.05111569656535239	0.3743130201608587	-0.525423962747262	2.686998660817477	2.686998660817336	0.4393699651582246	2.881572134240957e-05	0.695148399509375	0.2676981710748857	-0.2269764339057613	0.003586492747652321	-0.01115134924294026	-0.317433807067769	0.07090587465489351	0.03086950452473058	0.2212277895564922	-15.34945531659862	-9.336522676888116	-0.4930976723007997	-3.515741578998873	-622.9628719464873	-64.8851647821291	-1.260353113249576	1.213146766286713	0.8548129754744704	-0.2525122443593417	-2.485784540398979	-0.172452455218515	-0.9415848934175303	2.112391053097083	-2.726164450046744	-2.726164450046737	-0.4304509796773017	-0.07885320450991681	-1.689315114644021	-0.3717269631447106	1.688238086835767e-07	-4.382720419998676e-06	-2.81256379445621e-06	-7.272267055874622e-07	-2.422530972779641e-07	-3.712829983991466e-06	-3.299277650515246e-08
0.55	-0.3608882070165419	-0.03340143415896908	0.6759082137172696	1.468439326486707	-0.2481737775971506	-0.01385298109155645	-0.3690761837524427	1.199670334282775	1.199670334282816	0.0322033563788444	0.1745326047876012	0.3082437456630122	0.08597838750185997	-0.3315170757375578	-0.07114725785971202	-0.7744122794194048	2.447969704392378	0.04916802446213016	0.3640830256932199	-0.5042990643667581	2.658628510129573	2.658628510129393	0.4354260499101724	-7.461013859422219e-06	0.6778544971910626	0.2634746566570847	-0.2333441287204071	0.003931276846147315	-0.01184739963678596	-0.3233227390383903	0.06868188317476669	0.03097906751401699	0.2266535040312758	-16.48441583208496	-9.008282166328222	-0.7477172562598888	-2.948446142772987	-629.9576600406115	-65.01199850019695	-0.6888088328548979	1.240993173727337	0.8469363977350775	-0.1393424270871475	-2.660727008572753	-0.2078364575124903	-1.058771032150784	2.114115411439661	-2.941906541452127	-2.94190654145814	-0.3832167565662577	0.03511442778266734	-1.763940066235584	-0.4589433587528509	1.820019256596369e-07	-4.024824690913136e-06	-2.732114267341939e-06	-6.904695686568524e-07	-2.269190766845112e-07	-3.625115888182575e-06	-2.913364153198791e-09
